<?xml version="1.0" encoding="UTF-8"?> <!-- Generator: Adobe Illustrator 24.0.1, SVG Export Plug-In . SVG Version: 6.00 Build 0) --> <svg xmlns="http://www.w3.org/2000/svg" xmlns:xlink="http://www.w3.org/1999/xlink" id="Layer_1" x="0px" y="0px" viewBox="0 0 98.5 21.4" style="enable-background:new 0 0 98.5 21.4;" xml:space="preserve"> <style type="text/css"> .st0{fill:#FFFFFF;} </style> <path class="st0" d="M59,13.3h-5.6V10h9.2c0,0.6,0.1,1.1,0,1.7c0,1.3-0.2,2.5-0.7,3.7c-0.8,2-2.2,3.4-4,4.5c-1.3,0.7-2.6,1.2-4,1.3 c-2.8,0.3-5.3-0.5-7.5-2.3s-3.5-4-3.9-6.8c-0.5-4,0.8-7.3,3.9-9.9c1.4-1.2,3.1-1.9,5-2.2c4.2-0.4,7.6,1,10.1,4.4c0,0,0,0,0,0.1 C60.7,5.2,59.8,6,59,6.7c-0.5-0.5-0.9-1.1-1.5-1.5c-1.6-1.4-3.4-2-5.5-1.8c-3.1,0.3-5.8,3-6.3,6.1c-0.5,3.5,1,6.3,3.9,7.9 c2.8,1.6,6.4,0.7,8.3-1.8C58.6,14.8,58.9,14,59,13.3"></path> <path class="st0" d="M77.3,10.7C77.2,4.9,82.2,0,87.9,0c5.9,0,10.6,5.1,10.6,10.7c0,5.9-4.7,10.7-10.6,10.7S77.3,16.6,77.3,10.7 M80.6,10.7c-0.1,4,3.2,7.4,7,7.5c4.1,0.1,7.4-3.4,7.5-7.4c0-4.3-3.5-7.3-6.9-7.4C83.9,3.1,80.6,6.6,80.6,10.7"></path> <path class="st0" d="M0,10.7C0,7.4,0,4,0,0.7c0-0.3,0.1-0.3,0.3-0.3c1.7,0,3.4,0,5.1,0c2.1,0.1,4.2,0.4,6,1.5 C13.8,3.3,15.3,5.4,16,8c0.5,2.1,0.5,4.2-0.3,6.2c-1.1,3.2-3.3,5.2-6.5,6.2C7.6,20.9,6,21,4.3,21c-1.3,0-2.7,0-4,0 C0.1,21.1,0,21,0,20.8C0,17.4,0,14.1,0,10.7 M3.5,17.8C3.6,17.8,3.6,17.8,3.5,17.8c1.5,0,2.9,0,4.2-0.4c1.5-0.4,2.8-1.1,3.7-2.4 c1.2-1.7,1.6-3.5,1.3-5.6C12.3,6.6,10.7,4.8,8,4C6.7,3.7,5.3,3.6,3.8,3.6c-0.3,0-0.3,0-0.3,0.3v13.5V17.8z"></path> <path class="st0" d="M23.7,21c0-0.1,0.1-0.2,0.1-0.3c2.9-6.8,5.8-13.5,8.7-20.3c0.1-0.2,0.2-0.2,0.3-0.2c0.4,0,0.8,0,1.2,0 c0.2,0,0.3,0.1,0.3,0.2c1.5,3.5,2.9,7,4.4,10.5c1.4,3.2,2.7,6.5,4.1,9.7c0,0.1,0.1,0.2,0.1,0.3c-0.1,0-0.2,0-0.2,0 c-1.1,0-2.1,0-3.2,0c-0.2,0-0.3-0.1-0.3-0.2c-0.6-1.5-1.3-3.1-1.9-4.6c-2.6,1-5.2,1-7.9-0.1c-0.2,0.6-0.5,1.1-0.7,1.7 c-0.4,1-0.8,2-1.3,3c-0.1,0.1-0.1,0.2-0.3,0.2C26,20.9,24.9,20.9,23.7,21C23.8,21.1,23.8,21,23.7,21 M36.1,13.3 c-0.9-2.3-1.8-4.5-2.7-6.8c-0.9,2.3-1.8,4.5-2.8,6.7C32.4,13.8,34.3,13.8,36.1,13.3"></path> <polygon class="st0" points="64.8,0.4 75.9,0.4 75.9,3.6 68.1,3.6 68.1,8.2 75.3,8.2 75.3,11.4 68.1,11.4 68.1,17.8 75.9,17.8 75.9,21 64.8,21 "></polygon> <rect x="19" y="0.4" class="st0" width="3.3" height="20.7"></rect> </svg> 