<?xml version="1.0" encoding="UTF-8"?> <!-- Generator: Adobe Illustrator 24.0.1, SVG Export Plug-In . SVG Version: 6.00 Build 0) --> <svg xmlns="http://www.w3.org/2000/svg" xmlns:xlink="http://www.w3.org/1999/xlink" id="Group_249" x="0px" y="0px" viewBox="0 0 112.3 21.2" style="enable-background:new 0 0 112.3 21.2;" xml:space="preserve"> <style type="text/css"> .st0{fill:#FFFFFF;} </style> <path id="Path_167" class="st0" d="M112.3,4.3L112.3,4.3V0.1h-4.9v11.1c-0.2,1.5-0.9,2.9-2,3.8c-0.9,0.8-2.1,1.3-3.3,1.3h-4.3 c-1.4,0-2.8-0.6-3.8-1.5c-1.1-1.1-1.8-2.6-1.8-4.2V0h-4.7v10.5c0,1.2-0.3,2.3-1,3.3c-1,1.4-2.6,2.3-4.3,2.3H78 c-0.7,0-1.5-0.1-2.2-0.3c-1.3-0.4-2.4-1.3-3.1-2.6c-0.5-0.9-0.8-2-0.8-3.1V0h-4.7v10.9c0,1.2,0.2,2.3,0.6,3.4 c0.9,2.3,2.5,4.2,4.6,5.4c1.2,0.7,2.5,1.1,3.8,1.3c1.1,0.1,2.3,0.2,3.4,0.1h0.5c1,0,2,0,3.1-0.1c2.6-0.3,4.9-1.7,6.5-3.7 c1.8,2.3,4.6,3.6,7.5,3.7h5.1c0.5,0,1,0,1.5-0.1c4.8-0.9,8.3-5.2,8.3-10.1L112.3,4.3z"></path> <path id="Path_168" class="st0" d="M65.1,10.2C65,4.5,60.4-0.1,54.6,0H39.6c-0.7,0-1.5,0.1-2.2,0.3c-2.9,0.6-5.4,2.5-6.8,5.1 c-2.1,3.6-1.9,8.1,0.6,11.5c1.9,2.7,4.9,4.2,8.2,4.2h18.4v-4.7H39.7c-0.7,0-1.4-0.1-2-0.4c-1.7-0.7-3-2.2-3.4-4 c-0.3-1.1-0.2-2.2,0.1-3.3c0.8-2.3,2.9-3.8,5.4-3.8h14.8c0.8,0,1.5,0.1,2.2,0.5c2.1,0.9,3.4,3,3.5,5.2v10.6h4.7l0.1-1.1v-2.8 C65.1,14.7,65.1,12.5,65.1,10.2L65.1,10.2z"></path> <path id="Path_169" class="st0" d="M10.2,0C9.5,0,8.7,0.1,8,0.4C5.9,0.8,4,1.9,2.7,3.6C1,5.3,0,7.6,0,10.1v9.8l0.1,1.1h4.6V10.5 c0-1.3,0.5-2.5,1.3-3.6c1.1-1.3,2.7-2,4.3-2h17.9V0H10.2L10.2,0z"></path> </svg> 